<svg t="1630683220874" class="icon" viewBox="0 0 1024 1024" version="1.1" xmlns="http://www.w3.org/2000/svg"
  p-id="18229" width="200" height="200">
  <path
    d="M440.432 417.677H171.966c-42.71 0-79.32 36.609-79.32 79.32 0 42.71 36.61 79.319 79.32 79.319h274.568v274.568c0 42.71 36.609 79.32 79.32 79.32 42.71 0 79.32-36.61 79.32-79.32V576.316H879.74c42.71 0 79.32-36.609 79.32-79.32 0-42.71-36.61-79.32-79.32-79.32H605.173V149.21c0-42.71-36.609-79.32-79.32-79.32-42.71 0-79.32 36.61-79.32 79.32v268.467z m0 0"
    p-id="18230"></path>
</svg>