<svg t="1631115004925" class="icon" viewBox="0 0 1024 1024" version="1.1" xmlns="http://www.w3.org/2000/svg" p-id="963"
  width="200" height="200">
  <path
    d="M512 1024a512 512 0 1 1 512-512 512.558545 512.558545 0 0 1-512 512z m0-930.909091a418.909091 418.909091 0 1 0 418.909091 418.909091 419.374545 419.374545 0 0 0-418.909091-418.909091z"
    p-id="964" data-spm-anchor-id="a313x.7781069.0.i1" class="selected"></path>
  <path
    d="M418.909091 791.272727a46.545455 46.545455 0 0 1-46.545455-46.545454V279.272727a46.545455 46.545455 0 0 1 76.334546-35.793454l279.272727 232.727272a46.545455 46.545455 0 0 1 0 71.58691l-279.272727 232.727272A46.545455 46.545455 0 0 1 418.909091 791.272727z m46.545454-412.625454v266.705454L625.477818 512z"
    p-id="965" data-spm-anchor-id="a313x.7781069.0.i0" class="selected"></path>
</svg>