<svg t="1634133569567" class="icon" viewBox="0 0 1029 1024" version="1.1" xmlns="http://www.w3.org/2000/svg" p-id="3038"
  width="200" height="200">
  <path
    d="M768 186h217c24.3 0 44 19.7 44 44s-19.7 44-44 44h-91v644c0 57.99-47.01 105-105 105H235c-57.99 0-105-47.01-105-105V274H60c-24.3 0-44-19.7-44-44s19.7-44 44-44h196V99c0-34.242 27.758-62 62-62h388c34.242 0 62 27.758 62 62v87z m-88 0v-61H344v61h336z m-462 89v643c0 9.389 7.611 17 17 17h554c9.389 0 17-7.611 17-17V275H218z m164 503c0 24.3-19.7 44-44 44s-44-19.7-44-44V410c0-24.3 19.7-44 44-44s44 19.7 44 44v368z m184.5 0c0 24.3-19.7 44-44 44s-44-19.7-44-44V410c0-24.3 19.7-44 44-44s44 19.7 44 44v368z m185 0c0 24.3-19.7 44-44 44s-44-19.7-44-44V410c0-24.3 19.7-44 44-44s44 19.7 44 44v368z"
    p-id="3039"></path>
</svg>