<svg t="1633865949746" class="icon" viewBox="0 0 1024 1024" version="1.1" xmlns="http://www.w3.org/2000/svg" p-id="1774"
  width="200" height="200">
  <path
    d="M694.395259 706.027517V649.889226c63.977422-13.00501 112.168207-69.576801 112.168207-137.455726 0-67.878925-48.22691-124.450716-112.168207-137.455725V318.875609c95.00882 13.79976 168.306498 94.755944 168.306498 193.594016 0 98.801947-73.297679 179.758132-168.306498 193.557892zM554.085656 175.820504L301.607846 344.127002h-84.171312c-30.959148 0-56.138291 25.070768-56.138291 56.138291v224.372539c0 31.031398 25.179143 56.138291 56.138291 56.138292h84.171312l252.47781 168.306498c30.959148 0 56.138291-25.070768 56.138291-56.138291V231.958795c0-31.067523-25.179143-56.138291-56.138291-56.138291zM301.607846 596.604812c0 15.497636-12.535384 28.033021-28.033021 28.03302h-28.10527a28.033021 28.033021 0 0 1-28.033021-28.03302v-168.306498a28.033021 28.033021 0 0 1 28.033021-28.033021h28.10527c15.497636 0 28.033021 12.535384 28.033021 28.033021v168.306498z m252.47781 196.339519l-196.339519-122.68059V354.639385l196.339519-122.68059V792.944331z"
    p-id="1775"></path>
</svg>